<?xml version="1.0" standalone="no"?>
<!DOCTYPE svg PUBLIC "-//W3C//DTD SVG 20010904//EN"
 "http://www.w3.org/TR/2001/REC-SVG-20010904/DTD/svg10.dtd">
<svg version="1.0" xmlns="http://www.w3.org/2000/svg"
 width="460.000000pt" height="460.000000pt" viewBox="0 0 460.000000 460.000000"
 preserveAspectRatio="xMidYMid meet">
<metadata>
Created by potrace 1.11, written by Peter Selinger 2001-2013
</metadata>
<g transform="translate(0.000000,460.000000) scale(0.100000,-0.100000)"
fill="#000000" stroke="none">
<path d="M2055 4195 c-16 -8 -38 -12 -47 -9 -19 6 -78 -21 -78 -35 0 -5 -17
-7 -37 -4 -43 5 -85 -23 -102 -70 -7 -19 -21 -29 -53 -37 -51 -14 -72 -31
-106 -85 -13 -22 -44 -60 -68 -83 -24 -24 -44 -49 -44 -55 0 -6 -9 -21 -21
-33 -11 -12 -26 -50 -33 -85 -16 -76 -18 -327 -4 -384 5 -22 12 -58 14 -80 2
-23 13 -65 24 -95 11 -29 19 -54 17 -54 -26 -8 -42 -29 -45 -58 -6 -70 116
-393 170 -452 10 -11 19 -36 19 -55 3 -87 29 -177 75 -260 34 -61 36 -72 38
-160 2 -63 6 -96 14 -99 19 -6 14 -30 -8 -37 -11 -3 -20 -13 -20 -21 0 -8 -3
-13 -7 -12 -5 1 -21 -4 -36 -10 -29 -12 -74 -93 -62 -112 4 -6 -1 -7 -11 -3
-13 5 -15 2 -9 -16 8 -26 -24 -59 -37 -38 -6 9 -8 8 -8 -2 0 -11 -3 -11 -15
-1 -10 8 -13 20 -9 34 5 14 -12 4 -56 -34 -34 -30 -77 -67 -94 -82 -17 -15
-27 -27 -21 -28 5 0 26 17 47 37 37 36 67 40 35 5 -10 -10 -14 -21 -11 -25 4
-3 -7 -9 -22 -13 -16 -4 -46 -21 -66 -37 -37 -29 -45 -61 -25 -94 4 -6 0 -24
-8 -39 -13 -26 -13 -30 0 -40 8 -6 15 -16 15 -22 0 -13 43 -3 53 14 4 7 15 11
25 9 9 -2 27 -4 40 -4 28 -1 29 -19 0 -23 -12 -2 -23 -8 -25 -15 -3 -8 11 -10
52 -6 50 5 58 3 78 -18 12 -13 21 -27 19 -31 -2 -9 12 -11 41 -9 9 1 17 -3 17
-8 0 -6 11 -11 25 -11 21 0 25 -5 25 -29 0 -22 -6 -30 -24 -35 -13 -3 -26 -12
-29 -21 -5 -11 2 -14 31 -11 20 2 42 5 47 6 6 1 16 2 24 1 11 -1 10 -5 -4 -15
-11 -8 -23 -12 -27 -9 -5 2 -11 -3 -15 -12 -3 -10 0 -20 6 -25 7 -4 12 -11 12
-16 -1 -5 6 -9 14 -8 8 0 51 1 95 2 66 2 80 5 80 18 0 10 -6 14 -15 11 -8 -4
-17 -2 -20 3 -3 5 10 12 29 15 24 5 33 11 29 21 -3 10 0 12 10 8 9 -3 18 -12
21 -20 7 -19 26 -18 26 1 0 25 36 17 73 -18 20 -18 53 -39 74 -46 21 -8 40
-17 43 -21 3 -4 23 -17 45 -29 22 -12 58 -32 80 -44 35 -20 162 -73 218 -91
33 -11 8 -24 -58 -31 -40 -5 -70 -3 -78 3 -12 10 -91 17 -151 14 -28 -2 -26
-4 25 -29 29 -15 62 -37 72 -50 10 -13 27 -23 38 -23 10 0 19 -4 19 -9 0 -5
11 -12 25 -15 14 -4 25 -11 25 -17 0 -20 25 -35 65 -38 22 -1 41 -4 42 -5 2
-1 -6 -12 -16 -23 -19 -20 -37 -77 -32 -101 1 -7 -5 -15 -14 -18 -21 -9 -20
-60 3 -69 15 -6 15 -8 -7 -26 -19 -16 -20 -20 -7 -25 14 -5 14 -10 2 -39 -8
-19 -12 -42 -9 -53 3 -15 -3 -22 -29 -32 l-33 -13 29 -6 c38 -8 43 -38 9 -54
-22 -10 -23 -12 -8 -23 15 -11 14 -13 -4 -26 -12 -8 -18 -18 -15 -21 4 -4 1
-14 -6 -22 -10 -12 -10 -19 -2 -27 8 -8 6 -17 -5 -34 -8 -13 -12 -28 -9 -33 4
-6 1 -19 -5 -29 -21 -34 -5 -52 48 -52 127 1 369 42 506 86 68 22 73 39 51
174 -8 55 -25 89 -65 135 -19 21 -28 39 -23 47 4 7 9 26 11 42 2 16 12 38 22
47 11 10 22 33 26 51 4 18 13 43 21 55 9 15 12 46 10 105 -3 89 -28 162 -69
204 -59 61 -67 70 -67 79 0 6 -9 21 -19 34 -10 14 -17 31 -14 38 8 21 -6 15
-37 -17 -47 -48 -72 -30 -30 23 11 14 20 29 20 34 0 4 7 20 14 36 8 15 11 27
6 27 -5 0 -13 -15 -19 -33 -6 -17 -22 -45 -35 -62 -20 -24 -27 -28 -37 -17
-10 9 -10 12 0 12 7 0 10 4 7 8 -7 12 12 79 28 94 14 14 16 20 17 46 0 14 2
14 9 -3 5 -11 9 -14 9 -7 1 7 10 25 21 40 11 15 26 50 35 77 18 60 18 68 4 59
-7 -4 -9 5 -6 30 3 20 1 33 -4 30 -5 -3 -9 -11 -9 -18 0 -7 -9 -25 -21 -40
-11 -14 -17 -31 -13 -37 5 -8 3 -9 -6 -4 -10 6 -12 3 -8 -13 4 -15 2 -22 -9
-22 -10 0 -12 -6 -8 -19 3 -11 1 -22 -5 -26 -5 -3 -10 -15 -10 -26 0 -10 -4
-19 -8 -19 -5 0 -19 -32 -32 -71 -14 -40 -30 -77 -36 -83 -6 -7 -14 -21 -18
-33 -12 -37 -81 -44 -140 -14 -21 11 -51 23 -66 26 -15 3 -30 14 -32 23 -3 9
-16 22 -29 28 -147 69 -399 197 -399 203 0 5 25 1 55 -7 92 -26 82 -7 -52 95
-34 27 -63 54 -63 62 0 8 -3 12 -6 8 -3 -3 -29 20 -58 51 -28 31 -58 63 -66
72 -30 31 -90 117 -100 146 -14 37 -4 98 15 90 7 -2 16 2 19 10 4 10 14 13 28
10 13 -3 17 -3 11 0 -7 3 -13 13 -13 21 0 11 6 14 23 9 12 -3 29 -6 38 -6 9 0
19 -7 22 -14 4 -11 1 -13 -11 -10 -15 5 -15 4 1 -6 9 -6 17 -16 17 -22 0 -6 8
-17 18 -24 14 -11 14 -13 2 -14 -8 0 0 -7 18 -15 17 -8 32 -20 32 -28 0 -14
27 -31 65 -41 17 -5 20 -13 18 -44 -2 -20 0 -31 3 -24 8 16 20 15 44 -5 13
-11 16 -19 9 -24 -7 -4 -8 -12 -4 -18 5 -9 11 -7 20 5 11 15 12 12 10 -25 -3
-56 36 -131 69 -131 12 0 28 -6 34 -12 10 -10 15 -10 21 1 7 11 18 6 54 -23
32 -26 54 -36 79 -36 21 0 46 -9 63 -21 l27 -22 30 31 c31 31 31 31 13 58 -12
19 -14 29 -7 32 7 2 12 10 12 18 0 8 6 14 14 14 21 0 28 41 9 55 -9 7 -13 17
-10 22 8 13 -8 27 -48 41 -16 6 -24 11 -17 11 6 1 12 9 12 19 0 18 73 102 89
102 5 0 13 13 19 28 5 15 24 42 41 59 17 17 31 36 31 41 0 5 8 9 17 8 10 0 18
4 19 9 4 26 17 55 25 55 5 0 6 -7 3 -15 -4 -9 0 -15 8 -15 10 0 15 11 15 30 0
16 6 48 13 71 11 32 11 42 1 48 -9 6 -5 13 14 25 22 15 25 22 20 48 -5 19 -1
41 8 62 71 144 99 244 96 350 -2 91 -2 91 36 109 19 9 35 21 35 27 0 15 -16
12 -30 -5 -17 -21 -29 -19 -39 8 -6 14 -5 27 4 37 7 9 9 24 4 40 -12 41 -10
57 7 57 10 0 14 -7 11 -19 -3 -10 -1 -18 4 -18 10 0 12 31 3 54 -3 9 -10 13
-15 10 -12 -7 -11 47 0 65 7 11 11 10 20 -7 6 -11 11 -32 11 -46 0 -21 5 -26
25 -26 22 0 25 -3 19 -25 -4 -15 -2 -25 5 -25 6 0 11 12 11 27 0 15 5 41 11
58 10 26 9 38 -4 65 -9 18 -14 36 -11 41 7 11 1 11 -30 -1 -21 -8 -26 -6 -26
6 0 8 7 17 15 20 8 4 12 11 9 16 -4 6 2 8 11 6 12 -2 25 -23 38 -63 18 -54 21
-57 29 -35 5 14 12 53 15 87 7 70 -8 119 -39 129 -15 4 -18 12 -14 32 8 38 10
244 4 327 -4 54 -13 83 -38 128 -27 49 -31 66 -27 100 4 23 1 66 -6 95 -10 45
-19 60 -57 90 -25 20 -47 41 -49 45 -11 26 -65 75 -108 97 -26 13 -72 39 -102
56 -29 18 -59 30 -66 27 -7 -2 -35 3 -62 13 -26 9 -97 21 -158 25 -60 4 -135
10 -165 13 -37 4 -65 1 -85 -9z m539 -634 c60 -11 86 -24 86 -46 0 -7 13 -24
28 -37 29 -24 33 -37 47 -158 9 -71 26 -138 46 -174 16 -30 21 -59 22 -137 1
-54 6 -99 10 -99 12 0 7 -139 -6 -177 -8 -24 -7 -35 1 -46 9 -10 10 -22 3 -40
-7 -17 -7 -28 -1 -32 6 -4 10 -11 10 -18 0 -8 -3 -8 -12 1 -21 21 -29 13 -12
-13 10 -15 13 -32 9 -42 -5 -10 -9 -24 -9 -32 -1 -18 -26 -27 -26 -10 0 7 -6
5 -15 -7 -13 -17 -14 -17 -15 -1 0 9 1 18 2 20 2 1 -6 16 -18 32 -11 17 -24
38 -27 48 -4 10 -17 17 -31 17 -14 0 -28 5 -31 10 -3 6 -14 10 -24 10 -23 0
-90 51 -91 68 0 8 -5 10 -12 5 -7 -4 -38 -8 -69 -9 -56 -1 -99 -16 -99 -35 0
-6 12 -9 28 -7 24 3 28 -1 37 -36 8 -33 6 -40 -10 -53 -11 -8 -29 -12 -39 -9
-13 3 -27 -4 -42 -21 -20 -23 -26 -25 -47 -16 -13 6 -35 9 -48 6 -15 -3 -30 1
-38 11 -16 19 -26 113 -13 129 16 20 20 79 10 142 -19 114 -18 134 2 145 21
11 60 13 84 4 11 -4 16 -19 16 -46 0 -21 7 -53 16 -70 13 -26 20 -29 44 -24
17 3 32 1 36 -6 5 -8 10 -6 14 6 6 17 7 17 22 2 14 -13 27 -14 86 -7 86 11
142 30 142 49 0 11 8 13 32 8 l32 -6 -31 27 -31 28 43 -3 c40 -4 44 -2 42 17
-1 12 -7 19 -13 17 -18 -7 -28 26 -12 39 7 5 14 28 16 51 3 45 -3 50 -90 77
-37 11 -51 12 -65 2 -10 -6 -45 -12 -78 -12 -33 -1 -96 -6 -140 -11 -90 -11
-166 -10 -164 2 2 21 -28 21 -102 1 -80 -23 -122 -23 -247 1 -20 4 -38 1 -47
-6 -12 -10 -15 -10 -15 1 0 8 -3 24 -6 37 -5 17 -2 22 13 22 31 0 34 10 12 39
-25 34 -18 86 10 72 21 -11 69 -1 99 20 20 14 22 20 12 36 -10 15 -5 29 28 83
32 54 46 67 76 75 20 6 34 14 30 18 -4 4 -1 8 7 9 8 0 25 2 39 4 54 6 116 28
140 49 8 7 33 16 55 18 56 7 219 0 289 -12z m-784 -391 c0 -5 -5 -10 -11 -10
-5 0 -7 5 -4 10 3 6 8 10 11 10 2 0 4 -4 4 -10z m1157 -68 c-8 -9 -17 -24 -21
-32 -3 -8 -3 -2 0 15 7 36 26 63 32 46 2 -7 -3 -20 -11 -29z m-1267 -190 c0
-26 -25 -5 -28 24 -2 28 -2 28 13 10 8 -11 15 -26 15 -34z m-85 -106 c-4 -20
-11 -33 -16 -30 -8 5 -3 47 8 67 10 17 14 -3 8 -37z m126 -1 c-22 -59 -37 -74
-46 -46 -3 11 -3 25 0 31 3 6 -1 18 -10 27 -21 20 -5 33 42 33 l31 0 -17 -45z
m96 -15 c6 0 19 -7 28 -17 13 -12 19 -13 24 -4 6 10 16 9 46 -3 42 -18 57 -20
35 -6 -9 6 -10 10 -3 10 7 0 16 -7 21 -17 8 -13 20 -15 66 -10 51 5 75 -4 44
-16 -9 -4 -8 -6 3 -6 8 -1 20 4 26 10 7 7 12 3 17 -16 4 -15 6 -29 4 -31 -2
-1 -45 -4 -96 -5 -67 -2 -92 -6 -92 -15 0 -15 -26 -31 -86 -55 -41 -16 -43
-16 -60 5 -10 11 -18 25 -16 29 4 12 -72 -4 -80 -17 -4 -6 -7 0 -6 14 0 14 0
30 -2 35 -5 19 0 45 9 45 4 0 6 -11 4 -24 -4 -17 1 -27 15 -35 22 -12 32 1 32
41 0 11 9 33 20 48 l20 28 -20 -5 c-11 -3 -20 -12 -20 -19 0 -16 -16 -19 -25
-4 -3 6 -1 10 4 10 6 0 11 6 11 14 0 18 19 26 45 21 11 -3 25 -5 32 -5z m-197
-96 c0 -12 -4 -12 -20 -2 -23 15 -33 35 -23 51 7 12 43 -28 43 -49z m140 -93
c0 -10 -39 -11 -45 -2 -2 5 7 9 20 9 14 0 25 -3 25 -7z m348 -15 c5 -22 -19
-40 -30 -23 -4 7 -8 20 -8 30 0 25 34 18 38 -7z m579 8 c-3 -3 -12 -4 -19 -1
-8 3 -5 6 6 6 11 1 17 -2 13 -5z m-951 -34 c0 -11 -6 -20 -14 -20 -7 0 -10 5
-7 10 3 6 -4 14 -17 19 -22 9 -21 10 7 10 24 1 31 -3 31 -19z m1080 -98 c-11
-10 -15 4 -8 28 l7 25 3 -23 c2 -13 1 -26 -2 -30z m-366 -105 c0 -25 -31 -49
-47 -36 -16 14 -28 -8 -13 -26 15 -18 1 -25 -65 -32 -47 -5 -55 -3 -55 11 0
10 -5 14 -10 11 -6 -4 -8 -11 -4 -16 5 -8 -17 -8 -81 1 -5 1 -1 5 10 10 l20 8
-20 7 c-11 3 -27 10 -36 15 -10 5 -21 4 -28 -3 -17 -17 -55 24 -46 52 6 21 35
30 35 11 0 -5 12 -9 28 -9 15 0 56 0 92 0 101 -1 120 1 120 12 0 5 11 7 25 5
14 -3 30 1 36 9 15 17 39 -1 39 -30z m230 -21 c0 -3 -4 -8 -10 -11 -5 -3 -10
-1 -10 4 0 6 5 11 10 11 6 0 10 -2 10 -4z m-134 -31 c-3 -8 1 -20 8 -28 10 -9
11 -19 4 -30 -6 -12 -5 -17 4 -17 10 0 10 -2 -1 -9 -7 -5 -11 -13 -7 -19 3 -6
0 -13 -6 -16 -10 -5 -10 -7 0 -12 6 -3 12 -12 12 -19 0 -7 6 -16 13 -18 7 -3
4 -6 -6 -6 -10 -1 -15 -5 -12 -11 3 -5 0 -7 -8 -4 -9 3 -13 14 -10 27 5 21 4
21 -12 6 -12 -12 -15 -22 -8 -34 6 -9 13 -16 16 -16 24 3 28 -2 9 -10 -13 -5
-26 -18 -29 -29 -6 -21 -36 -35 -53 -25 -6 4 -13 -7 -16 -24 -6 -28 -11 -33
-31 -30 -3 0 -10 -6 -15 -15 -11 -20 -52 -21 -72 -1 -20 20 -25 19 -19 -5 4
-15 0 -20 -16 -20 -12 0 -24 6 -27 14 -6 14 -42 14 -70 -2 -13 -7 -22 -6 -31
4 -17 17 -8 35 12 27 9 -3 15 1 15 11 0 9 -6 13 -14 10 -10 -4 -13 0 -9 14 3
14 -1 21 -16 25 -14 3 -21 0 -21 -9 0 -8 -4 -14 -10 -14 -5 0 -10 5 -10 11 0
6 -9 9 -20 6 -11 -3 -17 -1 -14 4 3 6 2 15 -4 22 -5 8 -4 21 4 37 l14 25 0
-27 c0 -19 5 -28 16 -28 10 0 13 6 9 19 -5 16 -1 18 27 13 18 -3 52 -5 75 -5
33 0 42 -4 46 -19 4 -15 10 -17 24 -10 10 5 24 7 31 5 6 -3 12 -1 12 5 0 5 19
15 43 22 42 14 91 55 82 69 -2 5 -27 6 -55 3 l-51 -5 12 27 c7 14 18 26 26 26
7 0 13 4 13 9 0 6 -17 8 -37 5 -34 -4 -32 -2 17 16 30 11 63 18 73 16 9 -2 24
2 31 10 8 8 22 14 31 14 8 0 18 7 21 15 4 8 8 15 11 15 3 0 3 -7 -1 -15z
m-401 -15 c3 -5 1 -10 -4 -10 -6 0 -11 5 -11 10 0 6 2 10 4 10 3 0 8 -4 11
-10z m475 -37 c0 -15 -2 -16 -10 -3 -6 10 -10 11 -10 3 0 -7 -4 -13 -10 -13
-5 0 -7 7 -4 15 8 21 34 19 34 -2z m30 -23 c0 -6 -7 -13 -15 -16 -8 -4 -15
-13 -15 -21 0 -8 -6 -13 -12 -10 -15 5 -11 39 5 49 17 11 37 10 37 -2z m-520
-34 c0 -3 -4 -8 -10 -11 -5 -3 -10 -1 -10 4 0 6 5 11 10 11 6 0 10 -2 10 -4z
m-84 -73 c-3 -6 0 -14 7 -17 9 -3 9 -5 0 -5 -14 -1 -18 5 -27 44 -6 28 -6 29
9 10 9 -11 13 -25 11 -32z m-248 -185 c-3 -7 -11 -13 -18 -13 -7 0 -15 6 -17
13 -3 7 4 12 17 12 13 0 20 -5 18 -12z m-258 -197 c0 -10 -24 -22 -54 -28 -19
-3 -19 -3 -1 17 18 20 55 28 55 11z m81 -64 c-10 -9 -11 -8 -5 6 3 10 9 15 12
12 3 -3 0 -11 -7 -18z m-91 -8 c0 -5 -4 -9 -10 -9 -5 0 -10 7 -10 16 0 8 5 12
10 9 6 -3 10 -10 10 -16z m128 -24 c-3 -3 -9 2 -12 12 -6 14 -5 15 5 6 7 -7
10 -15 7 -18z m-138 -159 c0 -2 -7 -7 -16 -10 -8 -3 -12 -2 -9 4 6 10 25 14
25 6z m-108 -21 c0 -5 -5 -11 -11 -13 -6 -2 -11 4 -11 13 0 9 5 15 11 13 6 -2
11 -8 11 -13z m48 -5 c0 -5 -4 -10 -10 -10 -5 0 -10 5 -10 10 0 6 5 10 10 10
6 0 10 -4 10 -10z m960 -27 c0 -5 -5 -15 -10 -23 -9 -13 -11 -13 -19 0 -5 8
-7 18 -5 22 6 10 34 11 34 1z m-527 -220 c-7 -2 -21 -2 -30 0 -10 3 -4 5 12 5
17 0 24 -2 18 -5z m392 -43 c14 -5 23 -14 20 -20 -9 -15 -19 -12 -45 10 -25
22 -16 26 25 10z m438 -300 c14 -17 15 -21 3 -26 -19 -7 -56 13 -56 31 0 22
33 18 53 -5z m-13 -92 c0 -14 -18 -9 -24 8 -11 28 -6 39 9 20 8 -11 15 -23 15
-28z m174 -101 c6 -26 5 -27 -14 -17 -17 9 -18 14 -9 31 12 24 14 23 23 -14z
m-179 -277 c3 -5 1 -10 -4 -10 -6 0 -11 5 -11 10 0 6 2 10 4 10 3 0 8 -4 11
-10z m180 -116 c9 -31 14 -59 11 -62 -3 -3 -9 9 -12 27 -5 24 -11 31 -24 28
-15 -4 -16 -1 -7 29 6 19 12 34 13 34 1 0 10 -25 19 -56z m-198 -156 c-3 -8
-6 -5 -6 6 -1 11 2 17 5 13 3 -3 4 -12 1 -19z m13 -32 c0 -2 -7 -7 -16 -10 -8
-3 -12 -2 -9 4 6 10 25 14 25 6z"/>
<path d="M1920 3270 c0 -5 7 -10 15 -10 8 0 15 5 15 10 0 6 -7 10 -15 10 -8 0
-15 -4 -15 -10z"/>
<path d="M1840 3179 c0 -5 5 -7 10 -4 6 3 10 8 10 11 0 2 -4 4 -10 4 -5 0 -10
-5 -10 -11z"/>
<path d="M2772 3105 c0 -16 2 -22 5 -12 2 9 2 23 0 30 -3 6 -5 -1 -5 -18z"/>
<path d="M1860 2696 c0 -9 5 -16 10 -16 6 0 10 4 10 9 0 6 -4 13 -10 16 -5 3
-10 -1 -10 -9z"/>
<path d="M1830 2664 c0 -8 5 -12 10 -9 6 3 10 10 10 16 0 5 -4 9 -10 9 -5 0
-10 -7 -10 -16z"/>
<path d="M2355 2300 c-3 -5 3 -10 14 -10 12 0 21 5 21 10 0 6 -6 10 -14 10 -8
0 -18 -4 -21 -10z"/>
<path d="M2170 2080 c0 -5 9 -10 21 -10 11 0 17 5 14 10 -3 6 -13 10 -21 10
-8 0 -14 -4 -14 -10z"/>
<path d="M2857 1896 c10 -13 19 -23 21 -21 7 6 -19 45 -29 45 -5 0 -2 -11 8
-24z"/>
<path d="M2882 1830 c0 -19 2 -27 5 -17 2 9 2 25 0 35 -3 9 -5 1 -5 -18z"/>
<path d="M2857 1729 c-19 -69 -49 -231 -43 -236 5 -6 35 95 52 177 21 103 15
143 -9 59z"/>
<path d="M1960 1686 c0 -9 7 -16 16 -16 17 0 14 22 -4 28 -7 2 -12 -3 -12 -12z"/>
<path d="M2021 1633 c1 -17 3 -21 6 -10 2 9 9 17 14 17 6 0 7 5 4 10 -12 19
-25 10 -24 -17z"/>
<path d="M2887 1534 c-21 -75 -22 -96 -2 -70 15 20 30 96 23 117 -2 7 -12 -14
-21 -47z"/>
<path d="M1256 1524 c-9 -8 -14 -20 -11 -25 4 -5 -2 -9 -12 -10 -15 0 -15 -2
4 -11 17 -8 25 -7 38 5 10 11 12 18 4 22 -6 4 -8 13 -5 21 7 18 1 18 -18 -2z"/>
<path d="M1192 1408 c6 -18 28 -21 28 -4 0 9 -7 16 -16 16 -9 0 -14 -5 -12
-12z"/>
<path d="M1408 1403 c-16 -2 -28 -11 -28 -18 0 -32 44 -28 53 6 3 10 4 18 4
18 -1 -1 -14 -4 -29 -6z"/>
<path d="M1650 1260 c-12 -8 -11 -10 8 -10 12 0 22 5 22 10 0 13 -11 13 -30 0z"/>
<path d="M1400 1250 c0 -5 5 -10 10 -10 6 0 10 5 10 10 0 6 -4 10 -10 10 -5 0
-10 -4 -10 -10z"/>
<path d="M2826 1243 c-6 -14 -5 -15 5 -6 7 7 10 15 7 18 -3 3 -9 -2 -12 -12z"/>
<path d="M1655 1181 c-3 -5 -1 -12 4 -15 13 -8 42 4 35 15 -7 12 -31 12 -39 0z"/>
<path d="M1618 1163 c7 -3 16 -2 19 1 4 3 -2 6 -13 5 -11 0 -14 -3 -6 -6z"/>
<path d="M1935 1150 c3 -5 8 -10 11 -10 2 0 4 5 4 10 0 6 -5 10 -11 10 -5 0
-7 -4 -4 -10z"/>
<path d="M1985 1150 c3 -5 8 -10 11 -10 2 0 4 5 4 10 0 6 -5 10 -11 10 -5 0
-7 -4 -4 -10z"/>
<path d="M2505 1094 c32 -13 63 -23 69 -21 10 3 -104 47 -120 47 -5 -1 18 -12
51 -26z"/>
<path d="M1738 1103 c7 -3 16 -2 19 1 4 3 -2 6 -13 5 -11 0 -14 -3 -6 -6z"/>
<path d="M767 963 c13 -26 34 -59 46 -74 51 -64 63 -87 74 -143 7 -32 19 -66
27 -75 9 -10 17 -36 20 -59 2 -24 6 -45 9 -48 3 -4 3 -19 0 -35 -3 -19 -1 -29
6 -29 7 0 9 -9 6 -22 -4 -18 4 -30 41 -56 25 -19 47 -32 49 -30 4 5 -20 133
-38 201 -14 51 -42 113 -58 127 -11 10 -31 69 -25 78 5 9 -20 35 -46 44 -9 4
-19 20 -23 37 -4 17 -15 33 -26 36 -10 4 -31 26 -45 51 -35 59 -49 57 -17 -3z"/>
<path d="M3780 990 c0 -5 5 -10 10 -10 6 0 10 -11 10 -24 0 -13 6 -26 14 -29
12 -5 14 -33 11 -156 -2 -93 0 -153 6 -157 13 -8 47 23 66 59 13 26 13 30 -3
41 -11 9 -13 15 -6 20 16 10 4 109 -15 119 -12 8 -12 12 1 32 14 22 14 23 -10
29 -19 5 -24 11 -19 26 4 11 2 20 -4 20 -5 0 -13 9 -16 20 -6 20 -45 29 -45
10z"/>
<path d="M3965 973 c-9 -22 -11 -43 -19 -168 l-6 -100 28 31 c28 29 29 35 27
116 -1 46 -5 90 -8 95 -4 6 -4 18 -1 27 8 22 -12 20 -21 -1z"/>
<path d="M2248 953 c7 -3 16 -2 19 1 4 3 -2 6 -13 5 -11 0 -14 -3 -6 -6z"/>
<path d="M3675 920 c-3 -5 -1 -10 4 -10 6 0 11 5 11 10 0 6 -2 10 -4 10 -3 0
-8 -4 -11 -10z"/>
<path d="M796 687 c3 -10 9 -15 12 -12 3 3 0 11 -7 18 -10 9 -11 8 -5 -6z"/>
<path d="M850 569 c0 -9 9 -27 20 -40 15 -19 19 -20 20 -8 0 9 -9 27 -20 40
-15 19 -19 20 -20 8z"/>
<path d="M1247 463 c-4 -3 2 -13 14 -21 23 -16 34 -10 26 13 -7 15 -28 20 -40
8z"/>
<path d="M1245 410 c3 -5 8 -10 11 -10 2 0 4 5 4 10 0 6 -5 10 -11 10 -5 0 -7
-4 -4 -10z"/>
<path d="M1247 363 c-10 -3 -16 -10 -14 -16 5 -17 52 -15 52 2 0 16 -12 21
-38 14z"/>
<path d="M3136 315 c4 -27 7 -59 9 -70 3 -34 16 -66 24 -60 8 4 -8 89 -29 150
-8 25 -9 22 -4 -20z"/>
</g>
</svg>
